<?xml version="1.0" encoding="UTF-8"?>
<!DOCTYPE svg PUBLIC "-//W3C//DTD SVG 1.1//EN" "http://www.w3.org/Graphics/SVG/1.1/DTD/svg11.dtd">
<!-- Creator: CorelDRAW 2021 (64-Bit) -->
<svg xmlns="http://www.w3.org/2000/svg" xml:space="preserve" width="319.073mm" height="213.777mm" version="1.1" style="shape-rendering:geometricPrecision; text-rendering:geometricPrecision; image-rendering:optimizeQuality; fill-rule:evenodd; clip-rule:evenodd"
viewBox="0 0 31785.73 21296.29"
 xmlns:xlink="http://www.w3.org/1999/xlink"
 xmlns:xodm="http://www.corel.com/coreldraw/odm/2003">
 <defs>
  <style type="text/css">
   <![CDATA[
    .fil1 {fill:#025DBE;fill-opacity:0.501961}
    .fil0 {fill:#FFD605;fill-opacity:0.501961}
   ]]>
  </style>
 </defs>
 <g id="Слой_x0020_1">
  <metadata id="CorelCorpID_0Corel-Layer"/>
  <path class="fil0" d="M23710.93 18032.94c31.32,6.5 123.6,71.78 137.86,90.39 15.16,19.78 26.83,45.82 41.43,69.72 19.26,31.52 52.89,42.42 87.49,82.31 56.21,64.8 72.56,60.35 91.34,87.39 40.07,57.67 -12.2,220.92 -152.49,133.57 -129.09,-80.37 -73.48,-30.06 -153.11,-65.68 -54.35,-24.3 -93.1,-67.82 -106.76,-123.15 -12.21,-49.47 -4.41,-56.75 -1.74,-103.87 5.06,-89.66 -2.66,-129.3 55.99,-170.68zm-2098 3262.82l-21.85 0.53c-21.48,-0.97 -35.23,-6.29 -60.83,-7.06 -76.97,-2.31 -188.19,15.71 -247.06,-19.27 -28.48,-16.94 -47.74,-40.02 -79.51,-55.87 -72.8,-36.31 -51.37,-66.27 -116.9,-103.67 -45.34,-25.88 -57.78,-64.87 -92.58,-85.69 -85.76,-51.3 -179.73,49.32 -281.88,-69.8 -17.2,-20.06 -32.39,-28.78 -49,-44.34l-18.82 -23.8c-17.72,-36.71 -23.28,-174.56 -16.08,-198.69 33.59,-112.65 168.05,19.44 214.72,-136.15 21.21,-70.71 41.71,-48.38 6.08,-123.71 -28.71,-60.72 -34.53,-182.52 8.05,-244.38 76.98,-111.82 4.53,-74.11 132.97,-246.59 101.59,-136.42 -56.14,-190.48 -68.3,-282.33 -6.31,-47.65 -6.4,-122.29 -16.36,-165.7 -12.07,-52.53 -52.75,-58.83 -82.08,-96.72 -17.9,-23.14 -15.74,-41.25 -29.48,-64.84 -23.38,-40.12 -100.19,-103.91 -142.01,-120.87 -23.4,-9.49 -49.01,-11.59 -69.44,-22.89 -56.54,-31.3 -39.15,-49.54 -127.76,-5.42 -75.95,37.81 -133.72,42.2 -218.01,37.45 -51.86,-2.93 -101.28,26.51 -144.39,-22.49 -13.83,-15.72 -22.09,-43.48 -33.69,-60.42 -19.71,-28.79 -22.16,-16.49 -43.49,-41.42 -15.37,-17.98 -21.82,-35.18 -41.42,-52.29 -18.55,-16.2 -31.59,-18.99 -50.83,-33.74 -42.18,-32.36 -35.91,-48.26 -98.83,-79.1 -60.4,-29.6 -52.79,-61.75 -98.59,-88.08 -28.09,-16.17 -110.66,-21.51 -150.4,-24.95 -49.21,-4.27 -116.02,-7.56 -162.99,-11.78 -119.51,-10.74 -244.9,55.35 -304.18,65.1 -10.26,1.7 -151.6,-5.86 -164.13,-8.82 -32.69,-7.71 -54.1,-22.57 -74.99,-43.16l-8.54 -8.46c-23.97,-22.39 -55.25,-35.84 -69.2,-66.7 -34.84,-77.09 -16.9,-194.13 46.95,-246.61 28.99,-23.84 29.94,-28.75 46.5,-63.55 29.66,-62.32 60.62,-37.21 103.97,-75.14 16.28,-14.25 28.91,-32.15 44.92,-48.45 41.62,-42.36 96.56,-38.11 167.66,-105.75 23.97,-22.78 30.72,-19.7 59.3,-34.75 54.01,-28.44 92.87,-84.56 136.6,-127.02 6.59,-6.43 21.28,-19.53 25.9,-25.11 60.89,-73.72 73.82,-47.83 127.18,-94.52 28.39,-24.84 13.55,-29.35 44.72,-48.64 24.21,-14.98 35.92,-10.61 59,-35.05l129.54 -108.85c61.98,-61.28 152.43,-121.22 231.11,-161.43 42.9,-21.93 96.76,-22.3 158.48,-23.23 161.2,-2.43 75.68,-36.3 237.88,-121.82 118.22,-62.33 -1.95,-53.44 244.11,-115.86 38.95,-9.88 36.63,-15.94 67.91,-26.57 66.47,-22.6 121.94,-52.09 180.69,-85.03 -1.49,-61 -3.25,-44.2 -31.91,-79.72 -58.76,-72.84 35.84,-482.92 -141.54,-400.94 -49.09,22.68 -94.47,70.64 -137.37,85.12 -51.38,17.32 -136.21,11.8 -190.02,-1.72 -36.84,-9.27 -39.23,-18.48 -56.78,-53.6 -25.58,-51.22 -10.69,-28.84 -54.07,-56.43 -54.4,-34.61 -77.4,-57.29 -142.61,-76.69 -93.66,-27.87 -101.65,-9.34 -194.36,-4.36 -78.61,4.22 -138.49,3.84 -201.76,23.5 -55.56,17.27 -83.87,70.93 -144.6,77.96 -122.02,14.11 -276.14,0.32 -414.97,19.48 -133.8,18.46 -240.74,62.07 -373.12,75.93 -74.32,7.78 -151.64,-2.19 -205.13,2.5 -63.34,5.54 -99.85,-38.77 -155.64,-49.55 -117.91,-22.77 -78.47,23.75 -144.53,-74.66 -19.79,-29.48 -82.83,-92.27 -111.43,-109.44 -52.11,-31.3 -124.13,0.11 -181.28,-36.1 -21.25,-13.45 -41.26,-30.21 -63.64,-46.38l-134.31 -85.41c-30.46,-21.72 -34,-25.65 -77,-32.38 -80.89,-12.64 -248.05,11.09 -315.59,-8.28 -48.89,-14 -33.22,-24.01 -63.07,-46.99 -27.94,-21.52 -46.5,-14.39 -49.25,-63.07 -2.43,-43.17 21.18,-53.21 52.1,-58.69 89.54,-15.84 130.65,20.79 191.2,-33.55 79.23,-71.11 313.18,-67.04 182.18,-187.46 -31.51,-28.97 -28.75,-37.73 -53.73,-65.52 -1.17,-1.31 -2.94,-3.08 -4.15,-4.34 -1.21,-1.26 -3,-3.03 -4.24,-4.25 -1.24,-1.23 -3.02,-3.01 -4.3,-4.19l-50.6 -25.25c-214.04,-44.86 -214.25,68.12 -220.21,-221.64 -4.5,-218.83 -80.69,-142.61 -212.12,-221.42 -27.5,-16.5 -38.16,-36.38 -73.59,-34.35 -56.4,3.23 -101.56,56.05 -151.52,71.64 -21.58,6.73 -74.58,13.4 -96.22,16.78 -90.27,14.09 -128.16,-44.37 -172.64,-33.06 -55.14,14 -73.91,37.42 -173.9,50.9 -38.74,5.22 -172.1,-4.49 -199.72,-14.42 -49.4,-17.75 -78.27,-91.06 -136.34,-57.84 -20.46,11.71 -44.09,36.75 -62.81,48.93 -96.81,63 -163.14,-2.11 -246.03,89.14 -68.15,75.02 -174.68,29.44 -267.55,51.51 -114.92,27.33 -16.41,370.48 -79.12,464.35 -27.6,41.31 -128.48,95.52 -152.02,178.7 -35.65,125.94 -42,70.84 -79.28,140.14 -26.87,49.98 -14.16,115.46 -63.42,155.26 -114,92.13 8.1,89.85 -134.88,186.72 -22.27,15.1 -34.56,37.01 -59.71,50.96 -80.07,44.38 -184.56,-3.16 -152.29,171.43 10.12,54.84 5.17,138.15 -30.83,176.7 -39.28,42.06 -61.31,81.92 -105.27,115.4 -26.59,20.25 -29.16,35.19 -49.31,60.86 -19.53,24.87 -38.36,29.33 -61.27,49.48 -31.07,27.36 -23.27,37.82 -45.27,64.7 -17.65,21.59 -40.99,29.33 -62.39,48.41 -29.52,26.34 -27.1,36.99 -79.83,81.56 -105.27,88.96 -39.88,141.05 -255.9,92.12 -31.06,-7.04 -65.59,-2.29 -97.13,2.91 -53.57,8.81 -66.16,15.86 -98.83,46.93 -35.28,33.52 -57.98,59.93 -81.02,105.31l-80.26 139.2c-49.69,78.98 0.19,191.77 -108.36,220.29 -61.34,16.12 -142.15,10.03 -197.31,-1.37 -76.95,-15.93 -76.9,-34.19 -177.12,-31.75 -13.05,62.97 -72.38,87.23 -16.04,156.13 37.67,46.07 62.69,68.4 66.28,148.18 3.84,85.35 -5.13,143.03 64.93,158.24 156,33.92 159.1,-30.99 165.67,252.79 1.85,79.69 6.43,131.57 -7.07,200.63 -7.64,39.09 -77.4,208.18 -106.9,221.77 -26.22,12.08 -68.36,7.77 -88.17,-1.15 -35.63,-69.85 25.77,-97.42 28.87,-147 2.2,-35.22 -19.08,-43.97 -35.09,-64.18l-41.6 -52.14c-28.46,-35.7 -30.77,-94.39 -61.1,-136.14 -28.37,-39.03 -63.69,-69.6 -112.01,-82.69 -108.34,-29.32 -58.93,-30.52 -117.6,-76.83 -26.49,-20.91 -128.73,-27.04 -167.68,-23.33 -34.12,3.25 -47.13,9.93 -93.78,10.88 -99.97,2.02 -176.91,-11.92 -221.5,29.56l-81.71 63.2c-69.07,43.14 -93.6,92.93 -184.42,106.36 -64.6,9.55 -92.58,18.83 -137.62,59.7 -43.14,39.16 -70.18,40.07 -93.08,102.1 -11.74,31.77 -17.45,43.89 -44.58,57.3 -96.73,47.83 -139.78,-71.55 -191.28,-79.63 -26.67,-4.19 -58.91,10.44 -79.35,20.71 -50.81,25.51 -43.35,87.62 -60.38,133.27 -0.75,2 -14.6,29.78 -17.24,33.34 -19.37,26.24 -52.33,34.45 -86.23,26.13 -94.02,-23.09 -127.51,0.22 -205.4,-20.12 -108.02,-28.18 -85.85,-78.8 -189.74,-105.58 -154.94,-39.92 -129.63,-68.07 -216.09,-77.91 -58.08,-6.62 -87.64,-33.56 -123.38,-70.76 -20.11,-20.97 -32.77,-26.34 -48.4,-53.67 -21.4,-37.45 -33.76,-65.18 -55.31,-98.69 -31.01,-48.27 -32.59,-35.23 -50.44,-103.81 -20.1,-77.27 -27.95,-43.18 -67.81,-85.56 -19.37,-20.61 -28.95,-55.3 -20.45,-81.82 8.85,-27.58 9.8,-18.38 24.09,-35.9l123.79 -81.17c16.88,-7.23 37.97,-14.66 50,-18.75 135.64,-46.05 304.51,73.97 366.8,-40.49 66.85,-122.82 -38.77,-263.34 0.31,-389.54 22.48,-72.58 99.09,-107.86 156.7,-141.06 34.68,-19.99 49.06,-54.57 78.92,-74.13 52.29,-34.26 42.79,-12.76 71.77,-72.66 25.14,-51.97 45.75,-38.12 90.7,-62.91 5.53,-3.05 39.63,-29.39 43.28,-33.42 47.33,-52.25 51.37,-99.64 49.47,-177.04 -2.48,-101.33 -47.14,-187.76 88.37,-189.34 165.14,-1.91 128.67,-17.2 212.76,-87.67l89.95 -55.34c-0.87,-35.3 1.38,-73.52 -5.73,-107.21 -8.28,-39.26 -25.2,-50.29 -25,-87.29 0.41,-75.97 207.87,-185.79 105.99,-276.41 -97.93,-87.12 -87.8,48.14 -95.08,-344.32 -2.59,-139.51 -13.44,-82.36 -58.31,-156.56 -29.12,-48.14 -8.54,-79.34 17.94,-122.3 19.32,-31.35 42.04,-66.39 70.08,-90.86 23.05,-20.13 30.61,-31.39 51.14,-50.82 53.63,-50.75 101.88,-23.38 156.51,-66.59 58.46,-46.24 55.82,-60.77 137.51,-77.07 85.69,-17.09 151.99,68.9 182.77,135.41 46.18,99.8 147.93,59.93 252.28,65.26 60.19,3.06 101.49,-30.23 184.07,-9.57 46.02,11.51 43.89,16.8 69.96,48.45l8 9.03c0.59,0.58 11.11,9.46 13.84,11.59 11.2,8.72 18.41,13.92 30.37,20.38 34.71,18.76 42.62,11.21 67.67,42.15 18.01,22.24 26.7,33.98 51.91,49.99l44.86 -40.23c48.84,-53.71 76.53,-43.61 156.89,-49.64 42.78,-3.21 84.33,-23.9 124.48,-0.12 9.56,5.67 31.26,27.43 40.02,36.38 80.37,82.35 123.67,54.1 287.7,63.92 78.02,4.67 155.15,-4.05 193.96,-81.96 -53.32,-75.56 -127.47,-40.41 -175.53,-103.09 -23.8,-31.04 -69.79,-45.57 -93.08,-67.74 -57.11,-54.39 -23.47,-197.66 22.17,-254.67 78.57,-98.1 45.6,-144.59 42.46,-274.74 -3.95,-164.33 -13.37,-131.32 -79.33,-247.65 -41.87,-73.88 1.33,-73.12 -91.11,-130.75 -21.99,-13.71 -30.26,-32.52 -49.86,-52.15 -65.94,-66.06 -95.22,5.24 -169.76,-30.72 -27.61,-13.32 -37.3,-32.96 -57.65,-52.74 -33.91,-32.95 -61.48,-39.77 -123.52,-96.74 -79.61,-73.11 -151.84,-53.53 -144.73,-178.52 2.47,-43.27 12.65,-55.57 24,-86.3 14.01,-37.91 -23.03,-131.42 -54.64,-151.95 -22.47,-14.62 -50.27,-16.73 -66.16,-35.05 -32.92,-37.94 -20.29,-134.19 -1.68,-177.61 29.14,-67.96 39.81,-47.96 57.61,-152.49 25.39,-149.12 47.93,-279.79 -157.64,-249.71 -77.27,11.32 -66.87,62.5 -167.97,18.22 -101.06,-44.27 -6.29,-141.16 -106.86,-218.73 -50.16,-38.69 -49.73,-83.67 -117.69,-102.87 -44.78,-12.65 -33.27,-12.23 -62.5,-38.88 -66.64,-60.73 -120.01,-35.88 -151.62,-67.22 -43.47,-43.14 -52.7,-319.75 -10.23,-368.75 42.16,-48.66 65.87,-59.47 73.9,-137.55 8.08,-78.64 -44.3,-184.52 39.6,-268.59 92.82,-93 15.46,-86.07 25.87,-257.38 5.83,-95.83 40.8,-66.45 -29.45,-152.29 -49.35,-60.29 -47.25,-88.61 -79.82,-142.62 -25.73,-42.68 -93.67,-48.65 -162.62,-46.98 -6.8,13.68 -36.74,71.32 -46.15,80.5 -74.98,73.18 -142.16,-66.05 -199.03,-101.73l-50.89 -42.38c-28.79,-29.13 -47.12,-72.59 -80.58,-98.26 -32.53,-24.97 -32.32,-25.03 -48.85,-70.63 -44.66,-123.11 -17.12,-59.72 -93.78,-154.1 -10.31,-12.69 -16.62,-19.36 -27.29,-32.31 -10.06,-12.21 -15.25,-21.29 -26.96,-32.66 -59.89,-58.17 -227.38,-43.31 -322.49,-36.86 -46.19,3.14 -53.34,15.21 -77.36,42.44 -157.86,178.88 -127.82,75.88 -237.49,10.46 -46.48,-27.7 -83.39,-31.2 -126.62,-58.65 -2.79,-114.48 129.04,-75.45 62.51,-178.61 -27.76,-43.04 -30.18,-52.88 -78.47,-74.62 -71.79,-32.34 -107.68,-6.14 -192.22,-15.94 -48.32,-5.6 -49.87,-5.93 -98.25,2.66 -158.89,28.21 -63.87,-157.25 -229.3,-198.62 -22.04,-5.51 -61.55,-2.76 -95.71,-4.02 -101.41,-3.74 -66.37,-47.56 -115.83,-96.09 -69.43,-68.14 -55.95,-78.73 -81.44,-106.08 -41.67,-44.76 -84.25,-85.19 -145.42,-99.87 -78.92,-18.94 -71.49,-69.34 -142.42,-69.22 -98.96,0.18 -85.93,96.88 -328.66,102.68 -74.03,1.76 -136.61,-1.31 -188.68,-20.04 -28.27,-10.19 -49.52,-23.3 -86.52,-10.55 -150.86,52 -137.66,100.35 -197.92,119.07 -44.92,13.96 -151.72,17.25 -186.8,-5.62 -53.82,-35.09 -54.49,-81.31 -142.58,-67.76 -87.45,13.44 -67.53,59.93 -131.14,82.67 -117.91,42.13 -188.1,-36.33 -272.45,5.82l-17.01 8.78c-25.64,14.71 -24.11,17.75 -35.38,40.95 -33.67,69.25 -65.43,63.68 -139.86,82.45 -122.24,30.85 -80.32,135.77 -248.98,177.59 -55.06,13.66 -127.76,20.66 -194.78,21.85 -100.78,1.78 -95.69,27.17 -152.91,70.02 -53.61,40.18 -91.91,10.83 -112.42,100.29 -20.23,88.22 -33.87,74.42 -71.63,139.15 -16.49,28.24 -14.83,52.35 -29.67,79.58l-92.98 118.81c-16.98,26.11 -27.17,33.77 -45.85,55.85 -58.27,68.88 -183.64,65.11 -266.06,54.78 -50.25,-6.29 -42.99,2.34 -88.04,6.05 -127.02,10.44 -288.79,-21.36 -386.96,54.52 -61.77,47.73 -82.55,24.37 -171.78,26.94 -140.28,4.06 -270.06,23.49 -408.91,11.33 -82.51,-7.24 -345.15,29.74 -381.58,57.16 -23.1,17.4 -32.58,35.8 -51.14,59.11 -30.58,38.37 -45.46,37.28 -72.28,88.75 -35.84,68.8 -107.97,108.67 -155.84,166.75 -62.06,75.29 -70.4,69.65 -184.52,81.37 -53.15,5.46 -137.42,22.78 -199.45,8.14 -48.02,-11.34 -59.89,-43.46 -91.61,-69.28 -32.57,-26.5 -47.24,-56.33 -62.54,-99.81 -34.12,-96.96 -99.66,-93.04 -175.54,-137.9l-109.89 -102.35c-30.42,-54.74 -10.15,-97.98 -64.9,-149.57 -131.79,-124.2 -111.74,-125.56 -307.15,-121.88 -71.53,1.33 -116.67,3.83 -163.27,51.87 -55.82,57.55 -82.11,29.4 -170.55,44.93 -271.57,47.69 -210.64,-62.29 -336.65,-80.61 -33.58,-4.87 -62.4,-8.4 -86.06,-22.84 -88.43,-54.01 25.78,-77.53 -239.35,-70.92 -221.99,5.55 -150.65,-13.98 -254.42,-72.51 -79.6,-44.9 -133.29,-5.11 -229.81,-80.93 -35.17,-27.62 -21.13,-30.23 -80.37,-28.82 -98.12,2.36 -205.7,10.61 -300.43,-6.78 -119.4,-21.92 -63.3,-45.02 -123.8,-87.73 -36.47,-25.74 -35.68,-2.5 -68.05,-41.76 -75.61,-91.71 -73.24,-45.78 -118.85,-92.93 -65.44,-67.66 -65.19,-52.78 -124.85,10.5 -28.52,30.26 -40.67,15.06 -67.88,51.48 -53.85,72.04 -51.19,73.84 -142.1,71.94 -43.72,-0.91 -74.83,8.29 -103.77,17.36 -69.36,21.76 -92.61,108.99 -175.81,124.08 -34.38,6.23 -50.9,-1.31 -66.82,-30.37 -34.61,-63.12 0.89,-187.51 -23.93,-297.1 -15.24,-67.34 -22.94,-78.67 -98.35,-88.32 -114.4,-14.63 -281.79,48.52 -302.2,-65.88 -8.24,-46.24 -6.1,-55.28 -37.03,-83.05l-13.22 -12.25c-6.56,-6.51 -15.23,-15.72 -20.5,-22 -41.5,-49.42 -25.07,-87.73 -54.25,-134.65 -61.09,-98.21 -150.46,-48.5 -237.35,-133.97 -69.43,-68.27 -28.25,-160.27 -72.53,-211.23 -18.11,-20.85 -33.89,-26.38 -51.73,-41.48 -46.6,-39.44 -15.08,-90.82 -57.07,-131.67 -11.37,-11.05 -37.96,-33.03 -50.93,-42.34 -21.44,-15.39 -39.15,-21.02 -58.37,-34.51 -39.15,-27.46 -59.97,-73.29 -69.56,-123.68l-3.44 -141.1c1.33,-12.37 2.99,-24.17 4.84,-35.16 10.18,-60.48 38.39,-77.3 85.29,-101.23 -1.06,-43.65 -17.69,-78.48 -4.9,-112.12 15.21,-40.03 74.9,-49 105.64,-82.25 35.3,-38.18 77.73,-56.83 96.79,-82 20.23,-26.69 32.42,-42.62 61.43,-65.92 62.52,-50.19 45.5,-179.17 152.61,-202.28 313.64,-17.5 636.13,-18.07 950.97,-25.67l29482.34 -718.58c39.58,-0.99 79.96,-1.95 119.5,-1.86 54.99,0.11 64.92,0.93 85.12,41.1 -34.78,54.28 -93.09,64 -87.76,127.28 3.95,47.08 5.97,45.82 1.28,96.95 -30.37,331.06 212.59,157 306.69,232.81 23.57,19 93.91,85.84 103.51,117.75 16.4,54.47 22.28,125.74 43.98,180.25 13.04,32.79 27.34,34.81 43.73,67.28 45.76,90.69 8.6,161.53 77.17,249.9 36.39,46.88 111.57,45.25 139.65,79.86 29.66,36.57 19.1,134.75 -7.95,168.36 -20.02,24.86 -30.4,17.04 -55.25,55.21 -22.58,34.69 -17.7,43.17 -26.82,82.28 -16.95,72.68 -53.41,77.8 -73.76,137.11 -16.95,49.39 -11.54,140.43 -19.91,196.69 -22.38,150.2 -9.26,72.7 -4.75,193.89 2.74,73.27 3.18,147.69 5.07,221.12 2.3,90.22 5.96,97.39 -32.72,176.21 -22.99,46.86 -28.31,117.08 -88.9,130.98 -89.76,20.58 -906.7,8.73 -1093.25,28.75 -67.25,7.21 -132.89,11.38 -212.54,13.22 -78.86,1.82 -176.05,-5.36 -245.33,31.76 -181.93,97.47 -71.3,323.96 -99.13,427.57 -5.73,21.32 -5.7,21.32 -17.57,33.59l-160.17 112.88c-21.09,15.03 -6.61,-8.7 -22.34,28.48 -16.54,39.12 -4.63,43.21 -46.93,63.13 -96.82,45.59 -223.1,-17.18 -302.36,68.68 -52.2,56.54 -111.49,45.98 -160.98,103.8 -40.85,47.73 -75.23,64.94 -82.68,136.91l14.34 599.23c7.76,43 15.57,42.98 44.22,66.79 107.41,89.24 38.77,130.26 -7.37,170.69 -36.14,31.65 -24.06,64.5 -64.15,96.5 -18.64,14.87 -46.46,33.69 -46.27,60.22 0.25,35.82 58.02,56.92 81.46,128.88 21,64.49 7.32,112.92 -41.2,153.54 -62.64,52.44 -64.94,49.97 -171.51,52.29 -119.57,2.61 -323.87,-2.43 -422.14,20.96 -52.83,12.58 -76.86,64.16 -144.15,78.36 -59.01,12.44 -140.78,11.52 -212.68,13.1 -194.35,4.3 -141.3,7.54 -242.88,92.16 -59.54,49.6 -48.81,75.32 -98.04,113.98 -43.61,34.25 -45.18,96.41 -87.58,132.22 -97.34,82.26 -25.27,129.88 -138.81,191.31 -83.69,45.3 -74.74,2.66 -167.16,-2.32 -46.52,-2.52 -158.18,-9.13 -195.64,13.43 -16.71,10.05 -33.32,45.52 -47.77,62.32 -28.33,32.99 -97.4,42.78 -147.02,92.23 -1.75,1.74 -6.53,6.96 -8.33,8.66 -12.93,12.18 -1.73,3.21 -13.71,11.83 -9.17,6.6 -22.74,12.92 -33.13,18.2 -54.95,27.86 -68.85,63.21 -112.7,100.03 -24.9,20.93 -39.06,25.34 -57.21,53.33 -32.87,50.67 -70.57,71.38 -103.76,116.83 -69,94.5 -236.37,13.3 -464.05,55.7 -38.73,7.22 -44.97,15.72 -71.86,39.39 -21.96,19.31 -38.83,37.54 -63.85,47.02 -79.74,30.22 -70.73,27.95 -124.12,89.15 -20.77,23.83 -36.27,21.24 -62.27,48.51 -26.24,27.54 -22.87,42.87 -44.43,65.51 -21.87,22.94 -37.09,19.67 -63.24,47.6 -34.92,37.31 -23.19,58.01 -80.8,64.67 -1.81,0.21 -31.24,0.62 -33.65,0.49 -68.33,-3.9 -71.42,-47.1 -141.56,-69.73 -56.39,-18.18 -186.78,-17.84 -255.31,-1.34 -34.97,8.42 -71.84,29.51 -99.53,46.22 -86.69,52.3 -185.66,36.6 -257.25,103.35 -37.62,35.07 -93.53,48.66 -123.01,90.2 -17.25,24.29 -38.78,71.91 -54.82,88.79 -22.56,23.75 -19.96,4.29 -37.58,38.86 -31.91,62.59 -22.09,103.62 -68.27,134.04 -57.53,37.89 -47.27,81.94 -109.26,111.6 -54.11,25.9 -66.7,63.09 -121.09,92.03 -45.19,24.05 -42.6,21.97 -77.36,59.02 -27.35,29.15 -43.01,43.16 -67.52,76.71 -41.33,56.51 -106.7,83.19 -151.86,137.37 -18.08,21.72 -7.39,17.43 -34.02,33.94 -167.32,103.75 -183.77,-116.35 -357.98,90.36 -33.81,40.1 -39.95,75.82 -66.86,102.2 -29.74,29.14 -82.91,35.44 -114.56,65.09 -51.68,48.42 -52.05,65.21 -142.48,71.65 -52.74,3.77 -64.32,18.04 -92.37,44.74 -72.4,68.91 -88.36,52.04 -120.27,167.47 -18.95,68.6 -75.2,134.61 -31.77,209.64 21.23,36.67 32.35,49.97 45.43,100.41 14.9,57.48 38.9,104.21 71.53,151.32 58.47,84.44 24.84,201.66 77.15,276.06 23.53,33.46 48.07,48.45 61.98,82.96 16.86,41.84 22.36,68.38 41.2,104.77 7.7,14.86 14.75,29.51 25.48,42.94 15.16,19 17.47,12.82 30.48,37.67 21.77,41.56 12.93,58.78 43.6,102.27 18.99,26.93 48,54.53 62.53,82.38 23.89,45.76 15.06,55.8 57.74,87.42 38.32,28.4 41.1,23.7 65.5,70.57l46.26 64.63c54.9,51.12 43.28,109.08 99.53,156.78 51.67,43.8 64.28,84.03 95.01,109.25 35.64,29.27 48.39,34.6 69.83,74.72 23.22,43.45 104.14,114.35 144.44,144.45 45.86,34.26 53.09,65.35 134.67,145.98 30.19,29.85 46.15,40.76 87.54,56.15 90.66,33.69 35.23,111.54 186.25,84.49 48.65,-8.71 93.13,1.18 124.1,-22.86 38.68,-30.04 18.39,-48.77 77.78,-66.96 98.51,-30.18 130.56,19.32 179.97,-85.68 23.12,-49.14 65.33,-82.15 85.48,-134.24 33.75,-87.29 7.84,-56.78 75.59,-135.35 28.81,-33.42 23.89,-49.46 85.83,-50.97 20.11,35.88 36.02,68.72 68.89,93.13 31.18,23.16 51.29,60.44 82.61,78.73 27.93,16.32 107.02,16.6 148.11,5.67 15.62,-4.15 34.11,-18.32 44.13,-32.63 32.68,-46.64 19.71,-41.55 67.71,-93.1 50.21,-53.92 38.29,-88.57 139.58,-91.01 63.59,-1.52 92.29,-13.02 153.08,-12.32 49.58,0.55 83.02,7 144.4,5.37 170.7,-4.54 475.22,-42.93 551.4,48.08 16.76,20.02 16.41,31.14 34,51.39 49.86,57.4 49.14,101.04 12.39,162.97 -26.4,44.46 -17.07,74.9 -58.92,101.47 -66.02,41.9 -119.5,86.1 -164.65,150.08 -55.46,78.62 -116.01,113.16 -79.45,230.27 26.47,84.79 94.83,35.63 103.14,214.75 9.69,208.84 -207.89,56.41 -295.04,175.75 -20.91,28.62 -40.38,37.21 -71.21,56.59 -48.3,30.37 -29.81,76.73 -102.47,85.13 -24.35,2.82 -60.92,4.17 -79.13,-4.31 -70.12,-32.68 -22.41,-75.16 -161.1,-67.28 -81.04,4.6 -98.46,74.43 -221.34,96.21 -80.43,14.27 -63.69,0.74 -128.58,35.16 -47.92,25.41 -72.38,23.82 -112.06,-10.79 -44.97,-39.21 -49.24,-10.68 -90.24,-70.71 -21.43,-31.38 -141.72,-127.47 -178.03,-144.02 -36.34,-16.55 -16.99,-3.67 -48.08,-27.88 -17.2,-13.4 -26.05,-19.39 -46.15,-29.93 -68.88,-36.09 -191.31,-45.94 -259.7,-1.29 -92.94,60.71 -115.29,95.58 -162.1,193.97 -18.67,39.26 -33.31,28.38 -33.32,84.38 -0.02,61.66 -7.14,77.18 -44.34,107.07 -33.91,27.26 -52.09,65.03 -80.6,80.84 -36.82,20.4 -67.92,27.41 -102.32,51.84 -9.81,6.97 -16.31,9.88 -25.8,16.89l-74.43 45.25c-101.25,41.79 -57.7,58.26 -114.04,123.63 -84.68,98.23 -15.38,248.04 -144.54,243.71 -78.11,-2.62 -63.96,-35.96 -102.13,-50.64 -77.39,-29.78 -202,-1.67 -290.56,0.28 -46.82,1.04 -114.99,-3.18 -158.17,6.95 -48.51,11.4 -59.64,36.5 -88.36,65.15 -51.68,51.53 -35.98,1.44 -92.76,69.24 -10.36,12.37 -10.77,11.55 -20.84,21.63 -51.68,51.68 -137.48,46.26 -194.71,79.98l-300.07 328c-125.65,148.46 77.53,263.66 -195.16,270.31 -20.55,41.24 -44.7,77.28 -81.04,105.3 -50.81,39.18 -57.87,34.03 -75.26,102.5 -14.7,57.83 -39.95,67.27 -89.26,89.16 -44.95,19.93 -49.59,61.6 -90.2,88.27 -42.66,28.01 -86.37,35.85 -123.28,65.06 -80.88,64.03 -113.87,54.91 -217.1,58.65 -41.87,1.52 -44.64,7.56 -76.67,10.6l-1.62 0.15zm1420.13 -3883.54c-2.27,-93.5 37.15,-85.86 142.3,-88.42 109.01,-2.66 131.48,70.88 147.31,106.58 26.98,60.87 65.86,109.29 -54.09,123.51 -106.75,12.66 -90.31,-56.6 -157.46,-84.27 -26.33,-10.84 -77.14,-20.46 -78.05,-57.4zm-782.44 -380.26c-0.93,-37.86 18,-41.94 44.77,-56.89 1.67,-0.94 3.82,-2.14 5.49,-3.07 228.35,-126.69 200.22,206.79 89.32,209.49 -43.52,1.06 -61.23,-51.05 -73.87,-70.48 -17.02,-26.14 -64.92,-46.56 -65.71,-79.05zm465.16 -87.81c-1.55,-63.93 -11.5,-186.86 9.5,-239.77 39.96,-100.67 154.33,6.14 195.21,33.54 51.23,34.36 130.12,100.67 134.32,163.78 7.08,106.56 50.51,287.85 -78.08,290.99 -41.26,1.01 -32.54,-45.99 -58.9,-103.62 -47.66,-104.23 -197.38,46.87 -202.05,-144.92zm-26.29 -381.7c-41.38,1.01 -68.21,-9.38 -69.38,-57.78 -1.35,-55.59 38.5,-53.34 75.91,-68.71 38.78,-15.96 42.2,-49.05 91.03,-54.31 34.46,48.84 35.59,66.7 36.85,118.05 1.17,47.8 -81.91,61.47 -134.41,62.75zm-1599.92 -105.45c-1.65,-67.91 73.03,-75.46 131.81,-90.13 90.01,-22.44 124.12,-119.53 210.84,-60.63 68.31,46.37 83.17,63.91 156.49,62.12 126.41,-3.08 98.74,-69.84 170.01,-95.2 62.98,-22.41 219.42,-11.82 272.16,5.4 82.26,26.86 27.41,39.17 138.51,72.29 17.09,5.09 22.3,5.53 36.94,13.48 44.54,24.17 29.8,49.94 86.63,74.51 159.32,68.85 163.03,35.32 81.32,155.16 -45.42,66.61 3.81,273.41 -110.61,276.2 -87.42,2.13 -114.74,-45.87 -174.99,-60.12 -16.68,-3.94 -92.81,-6.9 -108.33,-8.19 -236.09,-19.44 -109.18,12.58 -255.74,-97.25 -40.44,-30.3 -28.04,-101.01 -138.6,-98.31 -243.94,5.95 -273.03,74.87 -440.31,-77.64 -12.4,-11.31 -55.16,-31.58 -56.14,-71.7zm-6766.64 -140.95c-1.15,-46.81 30.05,-54.49 48.63,-86.38 42.66,-73.09 55.02,-112.45 124.49,-43.14 22.87,22.81 19.46,20.05 48.35,36.33 54.99,30.97 37.34,49.09 70.98,99.65 24.7,37.12 66.95,42.25 87.49,82.32 12.65,24.7 6.23,33.68 27.02,58.72 17.58,21.16 30.25,11.95 31.28,54.25 0.76,31.16 -50.91,43.72 -83.88,44.53 -51.17,1.25 -65.14,-29.12 -88.55,-55.08 -29.82,-33.07 -66.86,-25.13 -107.93,-43.44l-141.78 -121.1c-10.89,-12.11 -15.56,-4.33 -16.1,-26.65zm3726.52 -838.52c55.5,-1.34 153.06,-10.33 197.08,28.21 30.18,26.45 99.52,137.25 8.13,167.24 -62.07,20.38 -282.55,35.04 -292.6,-49.54 -0.56,-4.74 11.62,-144.06 87.4,-145.91zm-568.31 39.34c-0.78,-32 11.93,-39.76 25.05,-59.07 27.03,-39.78 69.44,-131.77 130.54,-128.97 8.7,0.4 106.82,38.91 119.24,47.52 49.94,34.57 86.98,208.18 -18.24,210.74 -115.97,2.83 -254.1,32.07 -256.6,-70.22z"/>
  <path class="fil1" d="M31592.21 8129.36c8.8,-9.24 32.54,12.69 9.56,4.17 -0.19,-0.07 -23.44,10.39 -9.56,-4.17zm-11631.32 -8128.05l53.75 -1.31c36.65,2.43 72.4,12.09 105.28,31.48 43.31,25.53 71.9,63.6 98.74,105.34l39.38 63.16c35.01,66.46 66.91,139.05 134.92,180.55 37.07,22.61 39.84,11.63 77.15,23.5 22.81,7.27 45.5,23.86 61.7,39.72l50.94 51.03c86.46,74.2 -9.05,156.82 -13.32,222.89 -3.28,50.46 15.31,49.81 27.88,75.89 14.72,30.59 -1.83,33.38 24.3,86.91 29.09,59.56 22.67,59.7 75.33,104.01 26.22,22.06 21.8,35.43 34.91,67.86 26.02,64.36 78.95,38.2 122.39,80.5 24.85,24.2 16.56,28.19 49.69,52.34l64.48 36.8c30.5,19.97 72.88,69.11 113.61,89.74 36.21,18.34 36.58,5.84 52.3,49.58 15.86,44.17 6.97,33.33 34.67,68.11 45.02,56.52 44.42,175.35 -15.92,224.62 -46.77,38.18 -124.38,14.38 -164.79,50.41 -74.88,66.75 -149.66,56.57 -203.1,96.86 -86.81,65.43 33.31,156.2 60.02,203.22l77.46 127.66c65.72,98.03 21.59,256.22 42.28,373.63 19.45,110.32 128.08,70.7 119.39,185.62 -3.19,42.12 -0.98,116.04 41.13,150.95 38.33,31.79 271.49,48.76 347.36,53.36 64.13,3.89 15.78,16.62 80.08,10.3 45.14,-4.43 57.77,15.47 85.7,42 31.66,30.05 77.47,36.64 123.3,44.72 55.3,9.75 100.09,41.92 157.13,41.92l163.18 -39.54c16.32,-5.49 7.88,-7.65 34.93,-16.49l90.32 -13.51c41.02,-12.52 5.93,-1.51 34.57,-16.9 46.59,-25.01 118.6,-6.62 171.33,4.95 104.74,23 80.01,110.12 119.75,187.78 66.67,130.3 36.39,89.67 153.56,160.99 15.24,9.27 49.99,33.31 63.14,38.77 66.23,27.45 168.12,-73.85 136.08,129.9 -7.21,45.89 7.35,121.57 17.89,178.14 11.61,62.29 48.44,127.74 73.88,183.69 61.96,136.29 59.83,34.7 147.35,211.06 37.76,76.05 109.75,101.94 72.87,204.85 -35.65,99.49 -85.78,65.68 -81.04,221.52 4.19,137.71 1.62,217.6 123.5,288.59 41.03,23.9 24.97,21.91 54.83,46.93l84.28 68.26c54.17,37.19 51.03,112.5 101.55,154.65l67.6 33.58c36.67,14.51 89.09,5.67 128.04,-9.08 33.23,-12.59 31.76,-28.25 54.26,-56.16 23.1,-28.67 61.29,-48.94 82.66,-70.56 39.54,-39.96 50.09,-80.97 119.28,-85.45 550.25,-35.76 430.76,23.2 515.23,86.69 80.32,60.37 53.9,-9.03 89.83,114.69 17.68,60.9 65.69,63.17 109.08,94.48 59.68,43.06 52.94,65.8 135.3,15.5 40.21,-24.56 107.29,-43.04 160.7,-30.6 128.8,29.98 93.8,159.04 228.58,179.67 73.24,11.22 79.81,-50.34 115.45,-83.09 20.18,-18.54 40.9,-21.42 60.03,-42.35 5.87,-6.42 19.15,-28.45 20.61,-30.14 22.66,-26.34 40.46,-14.13 97.65,-56.29 11.78,-8.7 19.66,-13.8 28.85,-22.28 67.89,-62.83 107.05,-65.98 169.06,-137.64 37.39,-43.2 151.88,-41.19 199.92,-33.07 101.6,17.15 35.05,10.02 159,-14.87 33.54,-6.73 45.21,-12.71 75.8,-27.34 124.06,-59.28 132.84,-98.51 174.8,-140.4 1.25,-1.24 3.27,-2.76 4.56,-3.94l18.25 -15.8c13.93,-14.11 4.03,-9.15 25.75,-25.23 33.36,-24.71 22.46,-37.81 44.2,-57.43 57.4,-51.82 204.79,-23.25 270.13,83.29 15.82,25.8 17.33,40.57 38.25,64.34 48.69,55.34 150.77,104.97 176.19,128.52 112.32,104.09 69.58,49.31 98.77,209.81 9.14,50.21 60.42,75.23 81.89,123.03 37.89,84.28 11.81,56.76 86.56,118.14 2.23,1.84 13.55,11.46 13.77,11.67 70.57,64.03 38.26,82.28 143.42,136.8 105.74,54.81 100.31,30.52 154.72,46.57l67.42 33.71c48.61,18.57 27.36,7.99 51.76,50.16 18.92,32.71 75.99,72.43 105.5,106.93 22.48,26.29 28.59,30.18 66.59,34.61 75.55,8.8 94.29,33.27 157.89,3.37 47.62,-22.4 107.06,-26.05 118.09,-87.56 9.67,-53.89 -55.35,-212.95 42.54,-240.96 34.05,-9.74 59.87,-6.59 91.16,-1.37 1.27,0.21 3.62,0.98 4.76,1.12 0.99,0.11 3.25,0.48 4.16,0.51 27.96,0.83 46.02,-10.44 82.27,16.69l61.17 49.03c27.31,25.08 67.77,32.87 92.6,59.53 52.58,56.45 49.82,65.33 139.52,62.52 520.63,-16.36 229.42,9.38 464.66,87.02 33.68,11.11 10.59,4.73 34.39,16.12 18.34,8.77 -6.55,2.26 14.76,5.79l60.37 1.73c37.03,8.68 113.28,62.36 148.05,88.99 60.17,46.1 84.45,95.13 178.13,77.53 101.4,-19.04 57.81,-47.16 121.25,-84.27 53.13,-31.08 22.86,-1.14 51.94,-50.07 6.35,-10.68 12.74,-17.24 22.27,-28.54 18.32,-21.68 12.27,-1.47 19.45,-31.24l118.89 -2.9c5.49,18.69 16.68,25.04 29.41,38.79 36.62,39.51 74.4,61.51 93.44,110.9 16.48,42.72 13.61,58.32 46.14,90.9 97.16,97.33 187.38,47.3 322.15,44.7 212.07,-4.07 149.34,11.73 230.22,28.5l0.62 25.47c52.37,-0.12 19.09,-5.54 48.55,18.68 91.09,74.9 29.2,20.05 71.25,125.49 44.29,111.06 147.27,75.58 245.16,143.19 184.41,127.35 273.88,-60.14 326.25,-110.12l38.16 -30c21.27,-14.12 13.36,-13.41 36.81,-23.02 22.62,-9.26 167.28,-14.09 186.61,-9.91 31.58,6.8 17.68,8 35.54,23.65 23.52,20.59 26.5,13.03 36.98,31.58 16.55,29.28 1.3,95.83 -45.57,133.21 -72.16,57.56 -15.71,38.17 -110.74,143.37 12.16,47.01 47.56,93.28 76.13,129.07l61.64 65.92c9.57,8.9 22.12,26.74 30.51,37.64 125.48,162.8 89.49,60.53 107.75,287.48 5.49,68.04 15.4,148.36 -18.47,214.57 -44.43,86.87 -26.61,4.58 -94.42,167.2 -16.11,38.62 -34.73,41.14 -54.94,72.08 -14.6,22.36 -44.6,173.7 -140.06,248.14 -49.97,38.95 -172.91,33.41 -212.97,45.99 -51.38,16.14 -106.86,151.92 -107.1,153.69 -2.9,20.92 25.32,64.04 38.76,82.71 94.4,131.28 244.68,83.66 283.99,84.6 46.42,1.09 66.15,19.3 96.06,30.18 117.1,42.62 131.53,-55.29 194.03,-39.09 88.68,22.97 63.49,52.77 36.96,171.61 -37.45,167.82 -252.69,52.99 -401,124.05 -32.7,15.66 -52.51,30.17 -97.02,32.25 -20.2,-40.18 -30.13,-40.99 -85.12,-41.1 -39.54,-0.09 -79.92,0.88 -119.5,1.86l-29482.34 718.58c-314.85,7.6 -637.33,8.17 -950.97,25.67 -1.44,-59.24 6.23,-85.05 33.53,-118.11l62.01 -90.22c13.7,-18.99 20.92,-21.41 33.94,-42.33l28.84 -47.19c11.72,-22.03 12.53,-33.34 20.04,-55.56 28.37,-83.97 47.09,-82.44 88.87,-139.31 16.74,-22.78 26.46,-47.92 51.36,-67.19l29.71 -21.48c89.32,-67.55 -3.58,-90.5 187.47,-95.16 15.89,28.33 33.08,60.23 61.44,74.82 18.06,9.29 26.68,8.15 47.93,19.36l69.75 39.97c1.82,0.8 4.15,1.64 5.93,2.48 22.77,10.73 18.41,17.77 51.65,24.88 96.9,20.73 119.27,-66.67 105.76,-137.29 -17.75,-92.77 -94.81,-75.69 -107.54,-148.96 -12.94,-74.48 1.6,-50.59 -52.88,-75.11 -1.88,-77.27 17.66,-144.34 42.09,-217.05 21.55,-64.15 9.99,-62.67 20.32,-105.06 8.56,-35.11 35.32,-24.83 46.75,-79.88 -77.45,-109.79 -33.51,-27.99 -67.2,-164.81 -9.42,-38.22 -0.51,-56.49 -10.69,-92.98 -4.25,-15.2 -3.93,-8.58 -5.95,-28.67 -2.83,-28.34 0.85,-48.86 3.83,-72.31 13.3,-104.65 -64.67,-167.89 -37.26,-250.46l35.22 -81.83c0.68,-1.05 2.21,-3.05 2.79,-4.07 13.88,-24.2 5.51,-28.62 36.93,-49.98 80.9,-54.98 49.64,-93.44 90.19,-138.28 22.01,-24.35 57.74,-38.78 85.52,-67.85 28.08,-29.4 40.29,-54.58 68.42,-84.13l305.63 -306.11c54.47,-43.68 80.49,-96.4 151.85,-153.97l143.49 -161.93c49.66,-48.44 49.04,-58.94 89.98,-105.07l214.93 -201.74c34.75,-31.13 29.48,-57.44 65.38,-87.02 34.39,-28.34 55.88,-31.82 83.68,-69.61 30.58,-41.59 54.24,-36.58 85.92,-67.46 10.23,-9.98 10.51,-12.18 17.8,-24.51l52.84 -57.5c16.31,-12.46 28.01,-16.82 46.67,-30.21 21.64,-15.55 22.94,-22.51 41.5,-35.13 33,-22.41 75.72,-26.07 106.96,-47.41l82.75 -70.49c31.58,-23.71 50.42,-49.81 73.86,-78.97l149.32 -148.07c170.69,-4.16 81.92,-94.33 201.51,-99.03 94.27,-3.72 84.36,38.05 183.08,9.15 42.79,-12.53 21.82,6.04 45.02,-23.5 20.3,-25.85 27.61,-73.87 45.91,-97.27l73.38 -71.12c22.87,-28.64 14.27,-16.31 40.43,-36.15 32.68,-24.8 42.99,-53.08 54.23,-89.37 20.11,-64.9 10.51,-53.77 6.19,-118.81l1.19 -58.31c-0.23,-21 -0.35,-46.11 -2.03,-55.8 -8.88,-50.55 -23.63,-124.76 -47.67,-165.24 -11.41,-19.22 -16.13,-28.1 -29.77,-47.13 -32.47,-45.33 -34.93,-103.06 -63.55,-151 -19.19,-32.14 -43.49,-65.2 -10.8,-107.13l56.49 -87.25c20.9,-26.54 44.66,-54.92 52.2,-91.3l-69.92 -100.73c-13,-56.07 -6.59,-82.6 -31.77,-132.12 -29.99,-58.95 -69.68,-103.54 -89.93,-166.85 -20.07,-62.74 -6.76,-165.14 -25.27,-226.02 -16.02,-52.71 -106.4,-169.8 -136.83,-195.99 -26.35,-22.67 -71.72,-45.06 -93.56,-67.2 -60.42,-61.25 -26.24,-133.12 -50.35,-190.31l-63.16 -99.83c-62.06,-78.38 -0.58,-122.53 13.5,-146.73 0.95,-1.63 1.93,-3.92 2.76,-5.67 0.08,-0.15 7.79,-24.03 8.24,-25.33 5.46,-15.79 5.42,-14.82 12,-30.04 0.99,-2.27 5.36,-12.04 7.76,-17.49 29.39,-66.59 21.69,-145.97 -6,-215.53 -23.51,-59.03 -148.15,-109.09 -87.9,-222.27 10.01,-18.82 26.36,-28.89 40.07,-44.79 23.39,-27.12 14.6,-22.77 25.55,-58.61 48.39,-158.42 252.1,-84.61 376.4,-89.7 43.14,-1.75 50.72,-1.73 74.51,8.95l18.52 7.95c1.12,0.35 3.66,0.65 4.78,0.98 37.25,11.53 24.96,40.89 64.74,55.3 64.6,23.39 138.4,33.23 189.43,-11.36 91.38,-79.85 100.65,-58.82 152.99,-94.81 33.46,-23 8.45,-18.2 34.13,-50.45 24.14,-30.32 60.58,-23.89 125.9,-120.63 24.26,-35.94 53.18,-55.58 72.14,-97.17 0.82,-1.78 1.84,-3.99 2.65,-5.79l36.11 -56.83c47.74,-48.99 29.77,-95.5 69.55,-141.12 1.15,-1.31 2.81,-3.2 3.97,-4.5 25.02,-27.66 29.86,-19.71 50.31,-35.04 75.38,-56.49 -67.66,-70.21 248.95,-78.08 279.86,-6.96 209.61,45.87 595.64,36.46 340.92,-8.31 197.99,-30.57 290.31,-47.53 18.84,-3.46 23.42,0.23 35,-0.59 35.35,-2.52 35.25,-36.15 172.89,-30.69 29.5,1.17 20.51,3.88 59,-3.74 245.66,-48.61 142.56,125.19 522.67,115.71 127.48,-3.19 377.14,-21.25 496.63,-7.63 95.32,10.88 48.56,13.55 106.07,54.09 79.66,56.16 197.73,12.56 291.42,16.18 91.18,3.54 95.11,64.26 154.64,98.96l89.54 62.75c20.18,19.53 31.66,24.97 65.9,26.73 61.09,3.12 91.84,-11.02 152.39,-12.48 137.13,-3.33 148.02,24.49 243.54,84.34 84.35,52.86 268.24,-26.46 353.74,55.32 91.91,87.93 56.17,24.89 175.13,68.67 48.36,17.8 56.82,53.49 95.6,73.81 62.89,32.93 226.54,14.08 296.59,20.11 47.2,4.08 99.46,-9.96 151.13,-11.23 12.93,44.09 37.22,9.81 35.83,74.68 -0.8,37.7 -15.69,54.51 5.8,90.38 21.9,36.55 80.29,76.32 117.69,94.39 56.44,27.25 69.66,70.86 97.05,124.52 11.18,21.91 24.53,50.99 46.49,64.41 112.68,68.85 149.56,-35.58 259.07,-70.8 43.96,-14.14 204.76,-9.69 234.41,5.51 49.41,25.32 89.07,56.55 141.17,78.19 91.62,38.03 36.41,38.24 132.31,1.9 94.98,-35.99 133.85,-25.94 214.57,8.37 35.55,15.11 55.02,12.21 79.19,38.77 1.65,1.83 6.01,7.54 7.71,9.32 49.76,51.96 97.68,13.81 171.04,12.02 17.55,-84.65 80.38,-74.18 118.75,-135.74 14.55,-23.34 3.75,-18.89 28.44,-39.27l34.09 -25.58c22.33,-22.62 32.68,-50.23 67.25,-60.36 52.21,-1.28 70.4,140.14 106.72,184.04 35.57,43.02 67.17,80.53 122.26,98.84l99.8 -11.21c44.39,-4.35 92.93,-17.34 150.25,-8.28l129.75 29.25c64,44.12 40.61,197.33 65.73,253.21 40.03,89.14 175.79,23.67 201.62,-26.61 9.82,-19.12 15.93,-38.92 22.85,-61.19 23.44,-75.41 85.06,-84.87 141.55,-130.6 14.17,-11.48 6.07,-5.4 13.18,-12.33 91.42,-89.23 102.59,-33.58 177.44,-79.82 24,-14.82 40.16,-44.42 86.85,-74.88 64.13,-41.83 174.18,-48.96 233.36,13.42 14.92,15.75 18.85,33.63 33.19,52.24 90.17,116.94 34.17,33.88 63.77,124.56 55.61,170.44 -7.71,252.83 130.51,385.58 74.1,71.15 69.11,45.58 148.72,13.04 21.04,-8.6 36.44,-9.55 58.13,-19.29 50.34,-22.57 86.15,-64.59 129.08,-92.72 29.13,-19.09 58.95,-29.55 78.34,-58.11 21.31,-31.4 36.84,-42.19 73.21,-54.68 103.84,-35.67 139.28,-55.72 226,28.69 16.25,15.81 27.19,29.03 45.81,38.99 166.78,89.3 208.66,-65.85 275.01,-62.42 104.9,5.42 357.76,-18.78 438.29,1.47 39.56,9.94 55.33,40.56 87.62,64.76 1.41,1.06 3.51,2.46 4.9,3.55l75.9 77.08c24.49,27.8 32.97,23.48 53.78,48.03 35.9,42.34 84.5,70.06 95.39,126.28 9.8,50.57 9.29,87.09 34.62,120.41 54.62,71.87 249.6,44.86 295.86,-27.69 22.76,-35.71 22.82,-157.32 24.38,-200.07 1.99,-54.69 -53.94,-205.31 -78.16,-244.12 -45.63,-73.04 -14.95,-50.58 -25.12,-121.51 -7.06,-49.28 -4.52,-245.48 7.42,-290.35 5.91,-22.14 17.26,-33.26 32.35,-52.14 14.72,-18.44 18,-25.48 29.03,-46.99l87 -149.39c32.95,-58.97 12.26,-150.65 16.11,-216.89 4.43,-76.19 64.74,-67.62 93.78,-109.76 28.82,-41.81 99.35,-179.79 138.22,-216.71 53.66,-50.98 31.39,-42.5 67.01,-93.77 44.52,-64.08 41.64,13.96 93.78,-142.92 13.08,-39.35 28.5,-44.28 44.04,-74.18l5.76 -11.11c0.92,-1.58 2.31,-3.63 3.26,-5.18 52.04,-85.36 -0.15,-127.44 197.73,-108.87 90.14,8.47 195.23,-14.58 273.46,35.1l76.64 -34.85c208.5,-73.1 31.53,-120.48 395.76,-121.51 53.17,-0.15 45.6,9.11 82.37,18.1 31.3,7.65 34.74,-7.28 83.65,-1.42 34.15,4.06 59.97,4.68 97.77,3.15 156.49,-6.35 63.75,-33.9 257.16,25.4 64.53,19.77 126.59,27.8 168.29,84.57 59.22,80.66 190.67,78.56 276.86,52.93 72.99,-21.72 82.13,-55.6 141.34,-89.36 52.64,-30.02 67.25,-26.35 105.8,-73.41 34.8,-42.48 66.73,-56.51 87.65,-115.6 35.63,-100.73 -37,-135.51 5.46,-210.22 19.87,-34.95 34.23,-7.64 58.84,-60.29 16.13,-34.49 14.88,-69.08 15.64,-117.82 0.75,-47.58 12.73,-41.08 25.97,-74.8 13.58,-34.59 2.02,-48.9 47.27,-54.55 52.24,-6.54 95.69,1.77 139.76,19.74l224.52 77.78c31.14,9.79 42.57,30.39 67.87,50.67 1.37,1.1 3.22,2.78 4.64,3.83 39.13,28.77 245.8,18.47 299.98,10.61 67.05,-9.73 100.35,-21.19 143.25,-62.63l46.27 -30.58c120.57,-65.63 77.57,-74.44 134.44,-95.9 63.44,-23.94 111.39,-107.09 179.95,-127.2 65.22,-19.15 132.61,1.39 191.63,0.69 79.78,-0.95 236.32,-25.66 295.64,-14.3 19.63,3.76 19.09,7.17 34.13,16.41 6.21,3.82 4.77,3.56 15.97,9.36 39.89,20.67 47.5,47.18 70.34,57.52 23.08,10.44 61.73,-1.54 80.41,-11.45 27.73,-14.72 -3.32,2.06 15.49,-10.19 1.53,-1.01 3.53,-2.47 5.07,-3.48 58.04,-37.66 132.75,-70.7 207.72,-78.88zm10509.86 6039.76c-5,20.88 4.04,11.39 -16.57,17.38 5.31,-22.21 -3.39,-9.38 16.57,-17.38zm-5509.7 -859.81c-5.08,-24.15 20.68,2.69 6.72,1.23 -15.41,-1.62 -2.68,18.01 -6.72,-1.23z"/>
 </g>
</svg>
